<svg width="10" height="10" viewBox="0 0 10 10" fill="none" xmlns="http://www.w3.org/2000/svg">
<g clip-path="url(#clip0_252_127)">
<path d="M6.66667 5.83334C7.20353 5.83337 7.71965 6.04065 8.10741 6.41195C8.49516 6.78325 8.72462 7.28991 8.74792 7.82626L8.75 7.91668V8.33334C8.75007 8.54358 8.67066 8.74608 8.52771 8.90024C8.38476 9.0544 8.18881 9.14883 7.97917 9.16459L7.91667 9.16668H2.08333C1.87309 9.16674 1.6706 9.08734 1.51644 8.94439C1.36228 8.80143 1.26785 8.60549 1.25208 8.39584L1.25 8.33334V7.91668C1.25003 7.37982 1.45731 6.86369 1.82861 6.47594C2.19991 6.08818 2.70656 5.85873 3.24292 5.83543L3.33333 5.83334H6.66667ZM5 0.833344C5.55253 0.833344 6.08244 1.05284 6.47314 1.44354C6.86384 1.83424 7.08333 2.36414 7.08333 2.91668C7.08333 3.46921 6.86384 3.99912 6.47314 4.38982C6.08244 4.78052 5.55253 5.00001 5 5.00001C4.44747 5.00001 3.91756 4.78052 3.52686 4.38982C3.13616 3.99912 2.91667 3.46921 2.91667 2.91668C2.91667 2.36414 3.13616 1.83424 3.52686 1.44354C3.91756 1.05284 4.44747 0.833344 5 0.833344Z" fill="#1C1C1C" fill-opacity="0.4"/>
</g>
<defs>
<clipPath id="clip0_252_127">
<rect width="10" height="10" fill="white"/>
</clipPath>
</defs>
</svg>
