<svg width="12" height="12" viewBox="0 0 12 12" fill="none" xmlns="http://www.w3.org/2000/svg">
<g clip-path="url(#clip0_327_206)">
<path fill-rule="evenodd" clip-rule="evenodd" d="M6.00003 6.70698L8.82853 9.53548C8.92283 9.62656 9.04914 9.67696 9.18023 9.67582C9.31133 9.67468 9.43674 9.6221 9.52944 9.52939C9.62215 9.43669 9.67473 9.31128 9.67587 9.18018C9.67701 9.04909 9.62661 8.92278 9.53553 8.82848L6.70703 5.99998L9.53553 3.17148C9.62661 3.07718 9.67701 2.95088 9.67587 2.81978C9.67473 2.68868 9.62215 2.56328 9.52944 2.47057C9.43674 2.37787 9.31133 2.32529 9.18023 2.32415C9.04914 2.32301 8.92283 2.3734 8.82853 2.46448L6.00003 5.29298L3.17153 2.46448C3.07681 2.37566 2.95124 2.32717 2.8214 2.32927C2.69156 2.33138 2.56763 2.38392 2.47584 2.47578C2.38405 2.56764 2.33159 2.6916 2.32958 2.82144C2.32756 2.95129 2.37614 3.07682 2.46503 3.17148L5.29303 5.99998L2.46453 8.82848C2.41678 8.87461 2.37869 8.92978 2.35248 8.99078C2.32628 9.05178 2.31249 9.11739 2.31191 9.18378C2.31133 9.25017 2.32398 9.31601 2.34912 9.37746C2.37426 9.43891 2.41139 9.49474 2.45834 9.54168C2.50528 9.58863 2.56111 9.62575 2.62256 9.65089C2.684 9.67603 2.74984 9.68869 2.81623 9.68811C2.88262 9.68753 2.94823 9.67374 3.00924 9.64753C3.07024 9.62133 3.12541 9.58324 3.17153 9.53548L6.00003 6.70698Z" fill="#1C1C1C" fill-opacity="0.6"/>
</g>
<defs>
<clipPath id="clip0_327_206">
<rect width="12" height="12" fill="white"/>
</clipPath>
</defs>
</svg>
