<svg width="14" height="14" viewBox="0 0 14 14" fill="none" xmlns="http://www.w3.org/2000/svg">
<g clip-path="url(#clip0_252_110)">
<path fill-rule="evenodd" clip-rule="evenodd" d="M11.8154 3.21999C11.6223 2.58591 10.9614 2.34266 10.4189 2.52349L4.08333 4.63516L3.28533 4.36916C3.10995 4.31074 2.92319 4.29484 2.74045 4.32276C2.55771 4.35068 2.38422 4.42163 2.23428 4.52976C2.08434 4.63788 1.96224 4.78009 1.87804 4.94466C1.79384 5.10924 1.74996 5.29146 1.75 5.47632V7.94091C1.75005 8.12572 1.794 8.30787 1.87824 8.47237C1.96247 8.63687 2.08459 8.779 2.23451 8.88706C2.38444 8.99512 2.5579 9.06602 2.74059 9.09391C2.92328 9.1218 3.10999 9.10589 3.28533 9.04749L4.08333 8.78149L4.53717 8.93316L4.38025 9.29891C4.3167 9.44723 4.28462 9.60713 4.28602 9.76849C4.28742 9.92985 4.32228 10.0892 4.3884 10.2364C4.45452 10.3836 4.55045 10.5154 4.67014 10.6237C4.78982 10.7319 4.93066 10.8141 5.08375 10.8652L8.05642 11.8557C8.33395 11.9481 8.63609 11.9329 8.90295 11.8131C9.16981 11.6933 9.38192 11.4776 9.49725 11.2087L9.73058 10.6645L10.4189 10.8937C10.9614 11.0746 11.6223 10.8307 11.8154 10.1967C12.005 9.57599 12.25 8.43791 12.25 6.70832C12.25 4.97874 12.005 3.84066 11.8154 3.21999ZM8.6205 10.2941L5.64783 9.30299L5.45242 9.75799L8.42508 10.7497L8.6205 10.2941Z" fill="#FBDF2A"/>
</g>
<defs>
<clipPath id="clip0_252_110">
<rect width="14" height="14" fill="white"/>
</clipPath>
</defs>
</svg>
