<svg width="18" height="18" viewBox="0 0 18 18" fill="none" xmlns="http://www.w3.org/2000/svg">
<g clip-path="url(#clip0_328_513)">
<path fill-rule="evenodd" clip-rule="evenodd" d="M3.74999 7.5C3.74999 6.50544 4.14508 5.55161 4.84834 4.84835C5.5516 4.14509 6.50543 3.75 7.49999 3.75C8.49455 3.75 9.44838 4.14509 10.1516 4.84835C10.8549 5.55161 11.25 6.50544 11.25 7.5C11.25 8.49456 10.8549 9.44839 10.1516 10.1517C9.44838 10.8549 8.49455 11.25 7.49999 11.25C6.50543 11.25 5.5516 10.8549 4.84834 10.1517C4.14508 9.44839 3.74999 8.49456 3.74999 7.5ZM7.49999 2.25C6.66844 2.25 5.84878 2.44753 5.10851 2.82632C4.36824 3.20512 3.72853 3.75434 3.24207 4.42875C2.75561 5.10317 2.43632 5.8835 2.31047 6.70548C2.18462 7.52745 2.25583 8.36757 2.51823 9.15664C2.78063 9.94571 3.22671 10.6612 3.81974 11.2441C4.41277 11.827 5.13579 12.2607 5.92925 12.5095C6.72271 12.7583 7.56393 12.8151 8.38362 12.6751C9.20331 12.5351 9.97803 12.2025 10.644 11.7045L14.469 15.5303C14.6096 15.671 14.8004 15.7501 14.9994 15.7502C15.1983 15.7502 15.3891 15.6713 15.5299 15.5306C15.6706 15.39 15.7497 15.1992 15.7498 15.0003C15.7498 14.8013 15.6709 14.6105 15.5302 14.4697L11.7052 10.6447C12.289 9.86439 12.644 8.93694 12.7306 7.96625C12.8171 6.99556 12.6318 6.01994 12.1953 5.14861C11.7588 4.27728 11.0884 3.54463 10.2592 3.0327C9.42991 2.52077 8.47453 2.24976 7.49999 2.25Z" fill="#1C1C1C" fill-opacity="0.4"/>
</g>
<defs>
<clipPath id="clip0_328_513">
<rect width="18" height="18" fill="white"/>
</clipPath>
</defs>
</svg>
