<svg width="16" height="16" viewBox="0 0 16 16" fill="none" xmlns="http://www.w3.org/2000/svg">
<g clip-path="url(#clip0_252_117)">
<path fill-rule="evenodd" clip-rule="evenodd" d="M7.07673 11.0469C7.32162 11.2917 7.65372 11.4292 8 11.4292C8.34628 11.4292 8.67838 11.2917 8.92327 11.0469L12.6177 7.35249C12.8003 7.16978 12.9247 6.93699 12.975 6.68359C13.0253 6.43018 12.9993 6.16755 12.9004 5.92891C12.8014 5.69027 12.6338 5.48635 12.4189 5.34295C12.204 5.19955 11.9514 5.12312 11.6931 5.12332H4.30692C4.04857 5.12312 3.79596 5.19955 3.58106 5.34295C3.36616 5.48635 3.19862 5.69027 3.09964 5.92891C3.00066 6.16755 2.97469 6.43018 3.02501 6.68359C3.07534 6.93699 3.19969 7.16978 3.38235 7.35249L7.07673 11.0469Z" fill="#FBDF2A"/>
</g>
<defs>
<clipPath id="clip0_252_117">
<rect width="16" height="16" fill="white"/>
</clipPath>
</defs>
</svg>
